# WaveFront *.obj file (generated by Autodesk ATF)

mtllib fixture_point.mtl

g Body1

v -68.671165 0.000000 -0.400000
v -68.614462 0.847051 -0.400000
v -68.445364 1.678987 -0.400000
v -68.166888 2.480961 -0.400000
v -67.784004 3.238662 -0.400000
v -67.303545 3.938570 -0.400000
v -66.734084 4.568193 -0.400000
v -66.085784 5.116297 -0.400000
v -65.370213 5.573100 -0.400000
v -64.600141 5.930452 -0.400000
v -63.789309 6.181974 -0.400000
v -62.952188 6.323179 -0.400000
v -62.103715 6.351546 -0.400000
v -61.259031 6.266570 -0.400000
v -60.433210 6.069767 -0.400000
v -59.640989 5.764649 -0.400000
v -58.896505 5.356661 -0.400000
v -58.213043 4.853082 -0.400000
v -57.602800 4.262901 -0.400000
v -57.076665 3.596648 -0.400000
v -56.644028 2.866212 -0.400000
v -56.312608 2.084629 -0.400000
v -56.088320 1.265846 -0.400000
v -55.975166 0.424474 -0.400000
v -55.975166 -0.424474 -0.400000
v -56.088320 -1.265846 -0.400000
v -56.312608 -2.084629 -0.400000
v -56.644028 -2.866212 -0.400000
v -57.076665 -3.596648 -0.400000
v -57.602800 -4.262901 -0.400000
v -58.213043 -4.853082 -0.400000
v -58.896505 -5.356661 -0.400000
v -59.640989 -5.764649 -0.400000
v -60.433210 -6.069767 -0.400000
v -61.259031 -6.266570 -0.400000
v -62.103715 -6.351546 -0.400000
v -62.952188 -6.323179 -0.400000
v -63.789309 -6.181974 -0.400000
v -64.600141 -5.930452 -0.400000
v -65.370213 -5.573100 -0.400000
v -66.085784 -5.116297 -0.400000
v -66.734084 -4.568193 -0.400000
v -67.303545 -3.938570 -0.400000
v -67.784004 -3.238662 -0.400000
v -68.166888 -2.480961 -0.400000
v -68.445364 -1.678987 -0.400000
v -68.614462 -0.847051 -0.400000
v -68.671165 0.000000 -0.500000
v -68.614462 -0.847051 -0.500000
v -68.445364 -1.678987 -0.500000
v -68.166888 -2.480961 -0.500000
v -67.784004 -3.238662 -0.500000
v -67.303545 -3.938570 -0.500000
v -66.734084 -4.568193 -0.500000
v -66.085784 -5.116297 -0.500000
v -65.370213 -5.573100 -0.500000
v -64.600141 -5.930452 -0.500000
v -63.789309 -6.181974 -0.500000
v -62.952188 -6.323179 -0.500000
v -62.103715 -6.351546 -0.500000
v -61.259031 -6.266570 -0.500000
v -60.433210 -6.069767 -0.500000
v -59.640989 -5.764649 -0.500000
v -58.896505 -5.356661 -0.500000
v -58.213043 -4.853082 -0.500000
v -57.602800 -4.262901 -0.500000
v -57.076665 -3.596648 -0.500000
v -56.644028 -2.866212 -0.500000
v -56.312608 -2.084629 -0.500000
v -56.088320 -1.265846 -0.500000
v -55.975166 -0.424474 -0.500000
v -55.975166 0.424474 -0.500000
v -56.088320 1.265846 -0.500000
v -56.312608 2.084629 -0.500000
v -56.644028 2.866212 -0.500000
v -57.076665 3.596648 -0.500000
v -57.602800 4.262901 -0.500000
v -58.213043 4.853082 -0.500000
v -58.896505 5.356661 -0.500000
v -59.640989 5.764649 -0.500000
v -60.433210 6.069767 -0.500000
v -61.259031 6.266570 -0.500000
v -62.103715 6.351546 -0.500000
v -62.952188 6.323179 -0.500000
v -63.789309 6.181974 -0.500000
v -64.600141 5.930452 -0.500000
v -65.370213 5.573100 -0.500000
v -66.085784 5.116297 -0.500000
v -66.734084 4.568193 -0.500000
v -67.303545 3.938570 -0.500000
v -67.784004 3.238662 -0.500000
v -68.166888 2.480961 -0.500000
v -68.445364 1.678987 -0.500000
v -68.614462 0.847051 -0.500000
vt -0.010000 1.911554 0.000000
vt -0.000000 1.911554 0.000000
vt -0.010000 1.996512 0.000000
vt 0.000000 1.996512 0.000000
vt -0.010000 -1.996512 0.000000
vt 0.000000 -1.996512 0.000000
vt -0.010000 -1.911554 0.000000
vt 0.000000 -1.911554 0.000000
vt -0.010000 -1.826596 0.000000
vt 0.000000 -1.826596 0.000000
vt -0.010000 -1.741638 0.000000
vt -0.000000 -1.741638 0.000000
vt -0.010000 -1.656680 0.000000
vt 0.000000 -1.656680 0.000000
vt -0.010000 -1.571722 0.000000
vt 0.000000 -1.571722 0.000000
vt -0.010000 -1.486764 0.000000
vt -0.000000 -1.486764 0.000000
vt -0.010000 -1.401806 0.000000
vt 0.000000 -1.401806 0.000000
vt -0.010000 -1.316848 0.000000
vt -0.000000 -1.316848 0.000000
vt -0.010000 -1.231890 0.000000
vt -0.000000 -1.231890 0.000000
vt -0.010000 -1.146932 0.000000
vt 0.000000 -1.146932 0.000000
vt -0.010000 -1.061975 0.000000
vt 0.000000 -1.061975 0.000000
vt -0.010000 -0.977017 0.000000
vt 0.000000 -0.977017 0.000000
vt -0.010000 -0.892059 0.000000
vt -0.000000 -0.892059 0.000000
vt -0.010000 -0.807101 0.000000
vt -0.000000 -0.807101 0.000000
vt -0.010000 -0.722143 0.000000
vt -0.000000 -0.722143 0.000000
vt -0.010000 -0.637185 0.000000
vt -0.000000 -0.637185 0.000000
vt -0.010000 -0.552227 0.000000
vt -0.000000 -0.552227 0.000000
vt -0.010000 -0.467269 0.000000
vt 0.000000 -0.467269 0.000000
vt -0.010000 -0.382311 0.000000
vt 0.000000 -0.382311 0.000000
vt -0.010000 -0.297353 0.000000
vt 0.000000 -0.297353 0.000000
vt -0.010000 -0.212395 0.000000
vt -0.000000 -0.212395 0.000000
vt -0.010000 -0.127437 0.000000
vt -0.000000 -0.127437 0.000000
vt -0.010000 -0.042479 0.000000
vt -0.000000 -0.042479 0.000000
vt -0.010000 0.042479 0.000000
vt 0.000000 0.042479 0.000000
vt -0.010000 0.127437 0.000000
vt 0.000000 0.127437 0.000000
vt -0.010000 0.212395 0.000000
vt 0.000000 0.212395 0.000000
vt -0.010000 0.297353 0.000000
vt -0.000000 0.297353 0.000000
vt -0.010000 0.382311 0.000000
vt -0.000000 0.382311 0.000000
vt -0.010000 0.467269 0.000000
vt -0.000000 0.467269 0.000000
vt -0.010000 0.552227 0.000000
vt 0.000000 0.552227 0.000000
vt -0.010000 0.637185 0.000000
vt 0.000000 0.637185 0.000000
vt -0.010000 0.722143 0.000000
vt 0.000000 0.722143 0.000000
vt -0.010000 0.807101 0.000000
vt 0.000000 0.807101 0.000000
vt -0.010000 0.892059 0.000000
vt 0.000000 0.892059 0.000000
vt -0.010000 0.977017 0.000000
vt -0.000000 0.977017 0.000000
vt -0.010000 1.061975 0.000000
vt -0.000000 1.061975 0.000000
vt -0.010000 1.146932 0.000000
vt -0.000000 1.146932 0.000000
vt -0.010000 1.231890 0.000000
vt 0.000000 1.231890 0.000000
vt -0.010000 1.316848 0.000000
vt 0.000000 1.316848 0.000000
vt -0.010000 1.401806 0.000000
vt -0.000000 1.401806 0.000000
vt -0.010000 1.486764 0.000000
vt 0.000000 1.486764 0.000000
vt -0.010000 1.571722 0.000000
vt -0.000000 1.571722 0.000000
vt -0.010000 1.656680 0.000000
vt -0.000000 1.656680 0.000000
vt -0.010000 1.741638 0.000000
vt 0.000000 1.741638 0.000000
vt -0.010000 1.826596 0.000000
vt -0.000000 1.826596 0.000000
vt -0.635510 -0.000000 0.000000
vt -0.629839 -0.084705 0.000000
vt -0.629839 0.084705 0.000000
vt -0.612929 0.167899 0.000000
vt -0.612929 -0.167899 0.000000
vt -0.585082 0.248096 0.000000
vt -0.546793 0.323866 0.000000
vt -0.498747 0.393857 0.000000
vt -0.441801 0.456819 0.000000
vt -0.376971 0.511630 0.000000
vt -0.305414 0.557310 0.000000
vt -0.228407 0.593045 0.000000
vt -0.147324 0.618197 0.000000
vt -0.063612 0.632318 0.000000
vt 0.021236 0.635155 0.000000
vt 0.105704 0.626657 0.000000
vt -0.585082 -0.248096 0.000000
vt 0.188286 0.606977 0.000000
vt 0.267508 0.576465 0.000000
vt 0.341956 0.535666 0.000000
vt 0.410303 0.485308 0.000000
vt 0.471327 0.426290 0.000000
vt 0.523940 0.359665 0.000000
vt 0.567204 0.286621 0.000000
vt 0.600346 0.208463 0.000000
vt 0.622775 0.126585 0.000000
vt 0.634090 0.042447 0.000000
vt 0.634090 -0.042447 0.000000
vt 0.622775 -0.126585 0.000000
vt 0.600346 -0.208463 0.000000
vt 0.567204 -0.286621 0.000000
vt -0.546793 -0.323866 0.000000
vt 0.523940 -0.359665 0.000000
vt -0.498747 -0.393857 0.000000
vt 0.471327 -0.426290 0.000000
vt -0.441801 -0.456819 0.000000
vt 0.410303 -0.485308 0.000000
vt -0.376971 -0.511630 0.000000
vt 0.341956 -0.535666 0.000000
vt -0.305414 -0.557310 0.000000
vt 0.267508 -0.576465 0.000000
vt -0.228407 -0.593045 0.000000
vt 0.188286 -0.606977 0.000000
vt -0.147324 -0.618197 0.000000
vt 0.105704 -0.626657 0.000000
vt -0.063612 -0.632318 0.000000
vt 0.021236 -0.635155 0.000000
vt 0.635510 -0.000000 0.000000
vt 0.629839 0.084705 0.000000
vt 0.629839 -0.084705 0.000000
vt 0.612929 0.167899 0.000000
vt 0.612929 -0.167899 0.000000
vt 0.585082 0.248096 0.000000
vt 0.546793 0.323866 0.000000
vt 0.498747 0.393857 0.000000
vt 0.441801 0.456819 0.000000
vt 0.376971 0.511630 0.000000
vt 0.305414 0.557310 0.000000
vt 0.228407 0.593045 0.000000
vt 0.147324 0.618197 0.000000
vt 0.063612 0.632318 0.000000
vt -0.021236 0.635155 0.000000
vt -0.105704 0.626657 0.000000
vt 0.585082 -0.248096 0.000000
vt -0.188286 0.606977 0.000000
vt -0.267508 0.576465 0.000000
vt -0.341956 0.535666 0.000000
vt -0.410303 0.485308 0.000000
vt -0.471327 0.426290 0.000000
vt -0.523940 0.359665 0.000000
vt -0.567204 0.286621 0.000000
vt -0.600346 0.208463 0.000000
vt -0.622775 0.126585 0.000000
vt -0.634090 0.042447 0.000000
vt -0.634090 -0.042447 0.000000
vt -0.622775 -0.126585 0.000000
vt -0.600346 -0.208463 0.000000
vt -0.567204 -0.286621 0.000000
vt 0.546793 -0.323866 0.000000
vt -0.523940 -0.359665 0.000000
vt 0.498747 -0.393857 0.000000
vt -0.471327 -0.426290 0.000000
vt 0.441801 -0.456819 0.000000
vt -0.410303 -0.485308 0.000000
vt 0.376971 -0.511630 0.000000
vt -0.341956 -0.535666 0.000000
vt 0.305414 -0.557310 0.000000
vt -0.267508 -0.576465 0.000000
vt 0.228407 -0.593045 0.000000
vt -0.188286 -0.606977 0.000000
vt 0.147324 -0.618197 0.000000
vt -0.105704 -0.626657 0.000000
vt 0.063612 -0.632318 0.000000
vt -0.021236 -0.635155 0.000000
vn -0.099108 0.013329 0.000000
vn -0.099108 0.013329 0.000000
vn -0.100000 0.000000 0.000000
vn -0.100000 0.000000 0.000000
vn -0.099108 -0.013329 -0.000000
vn -0.099108 -0.013329 -0.000000
vn -0.096447 -0.026420 -0.000000
vn -0.096447 -0.026420 -0.000000
vn -0.092065 -0.039039 -0.000000
vn -0.092065 -0.039039 -0.000000
vn -0.086040 -0.050962 -0.000000
vn -0.086040 -0.050962 -0.000000
vn -0.078480 -0.061975 -0.000000
vn -0.078480 -0.061975 -0.000000
vn -0.069519 -0.071882 -0.000000
vn -0.069519 -0.071882 -0.000000
vn -0.059318 -0.080507 -0.000000
vn -0.059318 -0.080507 -0.000000
vn -0.048058 -0.087695 -0.000000
vn -0.048058 -0.087695 -0.000000
vn -0.035941 -0.093318 -0.000000
vn -0.035941 -0.093318 -0.000000
vn -0.023182 -0.097276 -0.000000
vn -0.023182 -0.097276 -0.000000
vn -0.010010 -0.099498 -0.000000
vn -0.010010 -0.099498 -0.000000
vn 0.003341 -0.099944 -0.000000
vn 0.003341 -0.099944 -0.000000
vn 0.016633 -0.098607 -0.000000
vn 0.016633 -0.098607 -0.000000
vn 0.029628 -0.095510 -0.000000
vn 0.029628 -0.095510 -0.000000
vn 0.042093 -0.090709 -0.000000
vn 0.042093 -0.090709 -0.000000
vn 0.053808 -0.084289 -0.000000
vn 0.053808 -0.084289 -0.000000
vn 0.064563 -0.076365 -0.000000
vn 0.064563 -0.076365 -0.000000
vn 0.074165 -0.067078 -0.000000
vn 0.074165 -0.067078 -0.000000
vn 0.082444 -0.056595 -0.000000
vn 0.082444 -0.056595 -0.000000
vn 0.089252 -0.045101 -0.000000
vn 0.089252 -0.045101 -0.000000
vn 0.094467 -0.032802 -0.000000
vn 0.094467 -0.032802 -0.000000
vn 0.097996 -0.019919 -0.000000
vn 0.097996 -0.019919 -0.000000
vn 0.099777 -0.006679 -0.000000
vn 0.099777 -0.006679 -0.000000
vn 0.099777 0.006679 0.000000
vn 0.099777 0.006679 0.000000
vn 0.097996 0.019919 0.000000
vn 0.097996 0.019919 0.000000
vn 0.094467 0.032802 0.000000
vn 0.094467 0.032802 0.000000
vn 0.089252 0.045101 0.000000
vn 0.089252 0.045101 0.000000
vn 0.082444 0.056595 0.000000
vn 0.082444 0.056595 0.000000
vn 0.074165 0.067078 0.000000
vn 0.074165 0.067078 0.000000
vn 0.064563 0.076365 0.000000
vn 0.064563 0.076365 0.000000
vn 0.053808 0.084289 0.000000
vn 0.053808 0.084289 0.000000
vn 0.042093 0.090709 0.000000
vn 0.042093 0.090709 0.000000
vn 0.029628 0.095510 0.000000
vn 0.029628 0.095510 0.000000
vn 0.016633 0.098607 0.000000
vn 0.016633 0.098607 0.000000
vn 0.003341 0.099944 0.000000
vn 0.003341 0.099944 0.000000
vn -0.010010 0.099498 0.000000
vn -0.010010 0.099498 0.000000
vn -0.023182 0.097276 0.000000
vn -0.023182 0.097276 0.000000
vn -0.035941 0.093318 0.000000
vn -0.035941 0.093318 0.000000
vn -0.048058 0.087695 0.000000
vn -0.048058 0.087695 0.000000
vn -0.059318 0.080507 0.000000
vn -0.059318 0.080507 0.000000
vn -0.069519 0.071882 0.000000
vn -0.069519 0.071882 0.000000
vn -0.078480 0.061975 0.000000
vn -0.078480 0.061975 0.000000
vn -0.086040 0.050962 0.000000
vn -0.086040 0.050962 0.000000
vn -0.092065 0.039039 0.000000
vn -0.092065 0.039039 0.000000
vn -0.096447 0.026420 0.000000
vn -0.096447 0.026420 0.000000
vn 0.000000 0.000000 -0.100000
vn 0.000000 0.000000 -0.100000
vn 0.000000 0.000000 -0.100000
vn 0.000000 0.000000 -0.100000
vn 0.000000 0.000000 -0.100000
vn 0.000000 0.000000 -0.100000
vn 0.000000 0.000000 -0.100000
vn 0.000000 0.000000 -0.100000
vn 0.000000 0.000000 -0.100000
vn 0.000000 0.000000 -0.100000
vn 0.000000 0.000000 -0.100000
vn 0.000000 0.000000 -0.100000
vn 0.000000 0.000000 -0.100000
vn 0.000000 0.000000 -0.100000
vn 0.000000 0.000000 -0.100000
vn 0.000000 0.000000 -0.100000
vn 0.000000 0.000000 -0.100000
vn 0.000000 0.000000 -0.100000
vn 0.000000 0.000000 -0.100000
vn 0.000000 0.000000 -0.100000
vn 0.000000 0.000000 -0.100000
vn 0.000000 0.000000 -0.100000
vn 0.000000 0.000000 -0.100000
vn 0.000000 0.000000 -0.100000
vn 0.000000 0.000000 -0.100000
vn 0.000000 0.000000 -0.100000
vn 0.000000 0.000000 -0.100000
vn 0.000000 0.000000 -0.100000
vn 0.000000 0.000000 -0.100000
vn 0.000000 0.000000 -0.100000
vn 0.000000 0.000000 -0.100000
vn 0.000000 0.000000 -0.100000
vn 0.000000 0.000000 -0.100000
vn 0.000000 0.000000 -0.100000
vn 0.000000 0.000000 -0.100000
vn 0.000000 0.000000 -0.100000
vn 0.000000 0.000000 -0.100000
vn 0.000000 0.000000 -0.100000
vn 0.000000 0.000000 -0.100000
vn 0.000000 0.000000 -0.100000
vn 0.000000 0.000000 -0.100000
vn 0.000000 0.000000 -0.100000
vn 0.000000 0.000000 -0.100000
vn 0.000000 0.000000 -0.100000
vn 0.000000 0.000000 -0.100000
vn 0.000000 0.000000 -0.100000
vn 0.000000 0.000000 -0.100000
vn 0.000000 -0.000000 0.100000
vn 0.000000 -0.000000 0.100000
vn 0.000000 -0.000000 0.100000
vn 0.000000 -0.000000 0.100000
vn 0.000000 -0.000000 0.100000
vn 0.000000 -0.000000 0.100000
vn 0.000000 -0.000000 0.100000
vn 0.000000 -0.000000 0.100000
vn 0.000000 -0.000000 0.100000
vn 0.000000 -0.000000 0.100000
vn 0.000000 -0.000000 0.100000
vn 0.000000 -0.000000 0.100000
vn 0.000000 -0.000000 0.100000
vn 0.000000 -0.000000 0.100000
vn 0.000000 -0.000000 0.100000
vn 0.000000 -0.000000 0.100000
vn 0.000000 -0.000000 0.100000
vn 0.000000 -0.000000 0.100000
vn 0.000000 -0.000000 0.100000
vn 0.000000 -0.000000 0.100000
vn 0.000000 -0.000000 0.100000
vn 0.000000 -0.000000 0.100000
vn 0.000000 -0.000000 0.100000
vn 0.000000 -0.000000 0.100000
vn 0.000000 -0.000000 0.100000
vn 0.000000 -0.000000 0.100000
vn 0.000000 -0.000000 0.100000
vn 0.000000 -0.000000 0.100000
vn 0.000000 -0.000000 0.100000
vn 0.000000 -0.000000 0.100000
vn 0.000000 -0.000000 0.100000
vn 0.000000 -0.000000 0.100000
vn 0.000000 -0.000000 0.100000
vn 0.000000 -0.000000 0.100000
vn 0.000000 -0.000000 0.100000
vn 0.000000 -0.000000 0.100000
vn 0.000000 -0.000000 0.100000
vn 0.000000 -0.000000 0.100000
vn 0.000000 -0.000000 0.100000
vn 0.000000 -0.000000 0.100000
vn 0.000000 -0.000000 0.100000
vn 0.000000 -0.000000 0.100000
vn 0.000000 -0.000000 0.100000
vn 0.000000 -0.000000 0.100000
vn 0.000000 -0.000000 0.100000
vn 0.000000 -0.000000 0.100000
vn 0.000000 -0.000000 0.100000
usemtl Steel_-_Satin
f 2/1/1 94/2/2 1/3/3
f 1/3/3 94/2/2 48/4/4
f 1/5/3 48/6/4 47/7/5
f 47/7/5 48/6/4 49/8/6
f 47/7/5 49/8/6 46/9/7
f 46/9/7 49/8/6 50/10/8
f 46/9/7 50/10/8 45/11/9
f 45/11/9 50/10/8 51/12/10
f 45/11/9 51/12/10 44/13/11
f 44/13/11 51/12/10 52/14/12
f 44/13/11 52/14/12 43/15/13
f 43/15/13 52/14/12 53/16/14
f 43/15/13 53/16/14 42/17/15
f 42/17/15 53/16/14 54/18/16
f 42/17/15 54/18/16 41/19/17
f 41/19/17 54/18/16 55/20/18
f 41/19/17 55/20/18 40/21/19
f 40/21/19 55/20/18 56/22/20
f 40/21/19 56/22/20 39/23/21
f 39/23/21 56/22/20 57/24/22
f 39/23/21 57/24/22 38/25/23
f 38/25/23 57/24/22 58/26/24
f 38/25/23 58/26/24 37/27/25
f 37/27/25 58/26/24 59/28/26
f 37/27/25 59/28/26 36/29/27
f 36/29/27 59/28/26 60/30/28
f 36/29/27 60/30/28 35/31/29
f 35/31/29 60/30/28 61/32/30
f 35/31/29 61/32/30 34/33/31
f 34/33/31 61/32/30 62/34/32
f 34/33/31 62/34/32 33/35/33
f 33/35/33 62/34/32 63/36/34
f 33/35/33 63/36/34 32/37/35
f 32/37/35 63/36/34 64/38/36
f 32/37/35 64/38/36 31/39/37
f 31/39/37 64/38/36 65/40/38
f 31/39/37 65/40/38 30/41/39
f 30/41/39 65/40/38 66/42/40
f 30/41/39 66/42/40 29/43/41
f 29/43/41 66/42/40 67/44/42
f 29/43/41 67/44/42 28/45/43
f 28/45/43 67/44/42 68/46/44
f 28/45/43 68/46/44 27/47/45
f 27/47/45 68/46/44 69/48/46
f 27/47/45 69/48/46 26/49/47
f 26/49/47 69/48/46 70/50/48
f 26/49/47 70/50/48 25/51/49
f 25/51/49 70/50/48 71/52/50
f 25/51/49 71/52/50 24/53/51
f 24/53/51 71/52/50 72/54/52
f 24/53/51 72/54/52 23/55/53
f 23/55/53 72/54/52 73/56/54
f 23/55/53 73/56/54 22/57/55
f 22/57/55 73/56/54 74/58/56
f 22/57/55 74/58/56 21/59/57
f 21/59/57 74/58/56 75/60/58
f 21/59/57 75/60/58 20/61/59
f 20/61/59 75/60/58 76/62/60
f 20/61/59 76/62/60 19/63/61
f 19/63/61 76/62/60 77/64/62
f 19/63/61 77/64/62 18/65/63
f 18/65/63 77/64/62 78/66/64
f 18/65/63 78/66/64 17/67/65
f 17/67/65 78/66/64 79/68/66
f 17/67/65 79/68/66 16/69/67
f 16/69/67 79/68/66 80/70/68
f 16/69/67 80/70/68 15/71/69
f 15/71/69 80/70/68 81/72/70
f 15/71/69 81/72/70 14/73/71
f 14/73/71 81/72/70 82/74/72
f 14/73/71 82/74/72 13/75/73
f 13/75/73 82/74/72 83/76/74
f 13/75/73 83/76/74 12/77/75
f 12/77/75 83/76/74 84/78/76
f 12/77/75 84/78/76 11/79/77
f 11/79/77 84/78/76 85/80/78
f 11/79/77 85/80/78 10/81/79
f 10/81/79 85/80/78 86/82/80
f 10/81/79 86/82/80 9/83/81
f 9/83/81 86/82/80 87/84/82
f 9/83/81 87/84/82 8/85/83
f 8/85/83 87/84/82 88/86/84
f 8/85/83 88/86/84 7/87/85
f 7/87/85 88/86/84 89/88/86
f 7/87/85 89/88/86 6/89/87
f 6/89/87 89/88/86 90/90/88
f 6/89/87 90/90/88 5/91/89
f 5/91/89 90/90/88 91/92/90
f 5/91/89 91/92/90 4/93/91
f 4/93/91 91/92/90 92/94/92
f 4/93/91 92/94/92 3/95/93
f 3/95/93 92/94/92 93/96/94
f 3/95/93 93/96/94 2/1/1
f 2/1/1 93/96/94 94/2/2
f 48/97/95 94/98/96 49/99/97
f 49/99/97 94/98/96 50/100/98
f 50/100/98 94/98/96 93/101/99
f 50/100/98 93/101/99 51/102/100
f 51/102/100 93/101/99 52/103/101
f 52/103/101 93/101/99 53/104/102
f 53/104/102 93/101/99 54/105/103
f 54/105/103 93/101/99 55/106/104
f 55/106/104 93/101/99 56/107/105
f 56/107/105 93/101/99 57/108/106
f 57/108/106 93/101/99 58/109/107
f 58/109/107 93/101/99 59/110/108
f 59/110/108 93/101/99 60/111/109
f 60/111/109 93/101/99 61/112/110
f 61/112/110 93/101/99 92/113/111
f 61/112/110 92/113/111 62/114/112
f 62/114/112 92/113/111 63/115/113
f 63/115/113 92/113/111 64/116/114
f 64/116/114 92/113/111 65/117/115
f 65/117/115 92/113/111 66/118/116
f 66/118/116 92/113/111 67/119/117
f 67/119/117 92/113/111 68/120/118
f 68/120/118 92/113/111 69/121/119
f 69/121/119 92/113/111 70/122/120
f 70/122/120 92/113/111 71/123/121
f 71/123/121 92/113/111 72/124/122
f 72/124/122 92/113/111 73/125/123
f 73/125/123 92/113/111 74/126/124
f 74/126/124 92/113/111 75/127/125
f 75/127/125 92/113/111 91/128/126
f 75/127/125 91/128/126 76/129/127
f 76/129/127 91/128/126 90/130/128
f 76/129/127 90/130/128 77/131/129
f 77/131/129 90/130/128 89/132/130
f 77/131/129 89/132/130 78/133/131
f 78/133/131 89/132/130 88/134/132
f 78/133/131 88/134/132 79/135/133
f 79/135/133 88/134/132 87/136/134
f 79/135/133 87/136/134 80/137/135
f 80/137/135 87/136/134 86/138/136
f 80/137/135 86/138/136 81/139/137
f 81/139/137 86/138/136 85/140/138
f 81/139/137 85/140/138 82/141/139
f 82/141/139 85/140/138 84/142/140
f 82/141/139 84/142/140 83/143/141
f 1/144/142 47/145/143 2/146/144
f 2/146/144 47/145/143 46/147/145
f 2/146/144 46/147/145 3/148/146
f 3/148/146 46/147/145 45/149/147
f 3/148/146 45/149/147 44/150/148
f 44/150/148 43/151/149 3/148/146
f 3/148/146 43/151/149 42/152/150
f 3/148/146 42/152/150 41/153/151
f 41/153/151 40/154/152 3/148/146
f 3/148/146 40/154/152 39/155/153
f 3/148/146 39/155/153 38/156/154
f 38/156/154 37/157/155 3/148/146
f 3/148/146 37/157/155 36/158/156
f 3/148/146 36/158/156 35/159/157
f 3/148/146 35/159/157 4/160/158
f 4/160/158 35/159/157 34/161/159
f 4/160/158 34/161/159 33/162/160
f 33/162/160 32/163/161 4/160/158
f 4/160/158 32/163/161 31/164/162
f 4/160/158 31/164/162 30/165/163
f 30/165/163 29/166/164 4/160/158
f 4/160/158 29/166/164 28/167/165
f 4/160/158 28/167/165 27/168/166
f 27/168/166 26/169/167 4/160/158
f 4/160/158 26/169/167 25/170/168
f 4/160/158 25/170/168 24/171/169
f 24/171/169 23/172/170 4/160/158
f 4/160/158 23/172/170 22/173/171
f 4/160/158 22/173/171 21/174/172
f 4/160/158 21/174/172 5/175/173
f 5/175/173 21/174/172 20/176/174
f 5/175/173 20/176/174 6/177/175
f 6/177/175 20/176/174 19/178/176
f 6/177/175 19/178/176 7/179/177
f 7/179/177 19/178/176 18/180/178
f 7/179/177 18/180/178 8/181/179
f 8/181/179 18/180/178 17/182/180
f 8/181/179 17/182/180 9/183/181
f 9/183/181 17/182/180 16/184/182
f 9/183/181 16/184/182 10/185/183
f 10/185/183 16/184/182 15/186/184
f 10/185/183 15/186/184 11/187/185
f 11/187/185 15/186/184 14/188/186
f 11/187/185 14/188/186 12/189/187
f 12/189/187 14/188/186 13/190/188
# 94 vertices
# 190 texture params
# 188 normals
# 184 facets

# 1 groups
