# WaveFront *.obj file (generated by Autodesk ATF)

mtllib fixture_point.mtl

g Body1

v -43.280000 0.000000 0.600000
v -43.250170 0.502661 0.600000
v -43.161097 0.998266 0.600000
v -43.014034 1.479857 0.600000
v -42.811043 1.940674 0.600000
v -42.554974 2.374249 0.600000
v -42.249423 2.774494 0.600000
v -41.898678 3.135791 0.600000
v -41.507663 3.453069 0.600000
v -41.081867 3.721874 0.600000
v -40.627267 3.938431 0.600000
v -40.150245 4.099701 0.600000
v -39.657498 4.203421 0.600000
v -39.155942 4.248134 0.600000
v -38.652617 4.233212 0.600000
v -38.154591 4.158865 0.600000
v -37.668853 4.026137 0.600000
v -37.202223 3.836891 0.600000
v -36.761251 3.593783 0.600000
v -36.352127 3.300226 0.600000
v -35.980594 2.960342 0.600000
v -35.651869 2.578901 0.600000
v -35.370565 2.161257 0.600000
v -35.140631 1.713275 0.600000
v -34.965296 1.241241 0.600000
v -34.847020 0.751784 0.600000
v -34.787464 0.251773 0.600000
v -34.787464 -0.251773 0.600000
v -34.847020 -0.751784 0.600000
v -34.965296 -1.241241 0.600000
v -35.140631 -1.713275 0.600000
v -35.370565 -2.161257 0.600000
v -35.651869 -2.578901 0.600000
v -35.980594 -2.960342 0.600000
v -36.352127 -3.300226 0.600000
v -36.761251 -3.593783 0.600000
v -37.202223 -3.836891 0.600000
v -37.668853 -4.026137 0.600000
v -38.154591 -4.158865 0.600000
v -38.652617 -4.233212 0.600000
v -39.155942 -4.248134 0.600000
v -39.657498 -4.203421 0.600000
v -40.150245 -4.099701 0.600000
v -40.627267 -3.938431 0.600000
v -41.081867 -3.721874 0.600000
v -41.507663 -3.453069 0.600000
v -41.898678 -3.135791 0.600000
v -42.249423 -2.774494 0.600000
v -42.554974 -2.374249 0.600000
v -42.811043 -1.940674 0.600000
v -43.014034 -1.479857 0.600000
v -43.161097 -0.998266 0.600000
v -43.250170 -0.502661 0.600000
v -43.280000 0.000000 0.500000
v -43.250170 -0.502661 0.500000
v -43.161097 -0.998266 0.500000
v -43.014034 -1.479857 0.500000
v -42.811043 -1.940674 0.500000
v -42.554974 -2.374249 0.500000
v -42.249423 -2.774494 0.500000
v -41.898678 -3.135791 0.500000
v -41.507663 -3.453069 0.500000
v -41.081867 -3.721874 0.500000
v -40.627267 -3.938431 0.500000
v -40.150245 -4.099701 0.500000
v -39.657498 -4.203421 0.500000
v -39.155942 -4.248134 0.500000
v -38.652617 -4.233212 0.500000
v -38.154591 -4.158865 0.500000
v -37.668853 -4.026137 0.500000
v -37.202223 -3.836891 0.500000
v -36.761251 -3.593783 0.500000
v -36.352127 -3.300226 0.500000
v -35.980594 -2.960342 0.500000
v -35.651869 -2.578901 0.500000
v -35.370565 -2.161257 0.500000
v -35.140631 -1.713275 0.500000
v -34.965296 -1.241241 0.500000
v -34.847020 -0.751784 0.500000
v -34.787464 -0.251773 0.500000
v -34.787464 0.251773 0.500000
v -34.847020 0.751784 0.500000
v -34.965296 1.241241 0.500000
v -35.140631 1.713275 0.500000
v -35.370565 2.161257 0.500000
v -35.651869 2.578901 0.500000
v -35.980594 2.960342 0.500000
v -36.352127 3.300226 0.500000
v -36.761251 3.593783 0.500000
v -37.202223 3.836891 0.500000
v -37.668853 4.026137 0.500000
v -38.154591 4.158865 0.500000
v -38.652617 4.233212 0.500000
v -39.155942 4.248134 0.500000
v -39.657498 4.203421 0.500000
v -40.150245 4.099701 0.500000
v -40.627267 3.938431 0.500000
v -41.081867 3.721874 0.500000
v -41.507663 3.453069 0.500000
v -41.898678 3.135791 0.500000
v -42.249423 2.774494 0.500000
v -42.554974 2.374249 0.500000
v -42.811043 1.940674 0.500000
v -43.014034 1.479857 0.500000
v -43.161097 0.998266 0.500000
v -43.250170 0.502661 0.500000
vt -0.010000 1.284793 0.000000
vt 0.000000 1.284793 0.000000
vt -0.010000 1.335177 0.000000
vt 0.000000 1.335177 0.000000
vt -0.010000 -1.335177 0.000000
vt 0.000000 -1.335177 0.000000
vt -0.010000 -1.284793 0.000000
vt -0.000000 -1.284793 0.000000
vt -0.010000 -1.234409 0.000000
vt 0.000000 -1.234409 0.000000
vt -0.010000 -1.184025 0.000000
vt -0.000000 -1.184025 0.000000
vt -0.010000 -1.133641 0.000000
vt -0.000000 -1.133641 0.000000
vt -0.010000 -1.083257 0.000000
vt -0.000000 -1.083257 0.000000
vt -0.010000 -1.032873 0.000000
vt -0.000000 -1.032873 0.000000
vt -0.010000 -0.982489 0.000000
vt -0.000000 -0.982489 0.000000
vt -0.010000 -0.932105 0.000000
vt 0.000000 -0.932105 0.000000
vt -0.010000 -0.881721 0.000000
vt 0.000000 -0.881721 0.000000
vt -0.010000 -0.831337 0.000000
vt 0.000000 -0.831337 0.000000
vt -0.010000 -0.780953 0.000000
vt 0.000000 -0.780953 0.000000
vt -0.010000 -0.730568 0.000000
vt -0.000000 -0.730568 0.000000
vt -0.010000 -0.680184 0.000000
vt -0.000000 -0.680184 0.000000
vt -0.010000 -0.629800 0.000000
vt -0.000000 -0.629800 0.000000
vt -0.010000 -0.579416 0.000000
vt 0.000000 -0.579416 0.000000
vt -0.010000 -0.529032 0.000000
vt -0.000000 -0.529032 0.000000
vt -0.010000 -0.478648 0.000000
vt -0.000000 -0.478648 0.000000
vt -0.010000 -0.428264 0.000000
vt -0.000000 -0.428264 0.000000
vt -0.010000 -0.377880 0.000000
vt 0.000000 -0.377880 0.000000
vt -0.010000 -0.327496 0.000000
vt -0.000000 -0.327496 0.000000
vt -0.010000 -0.277112 0.000000
vt -0.000000 -0.277112 0.000000
vt -0.010000 -0.226728 0.000000
vt -0.000000 -0.226728 0.000000
vt -0.010000 -0.176344 0.000000
vt -0.000000 -0.176344 0.000000
vt -0.010000 -0.125960 0.000000
vt 0.000000 -0.125960 0.000000
vt -0.010000 -0.075576 0.000000
vt 0.000000 -0.075576 0.000000
vt -0.010000 -0.025192 0.000000
vt -0.000000 -0.025192 0.000000
vt -0.010000 0.025192 0.000000
vt 0.000000 0.025192 0.000000
vt -0.010000 0.075576 0.000000
vt -0.000000 0.075576 0.000000
vt -0.010000 0.125960 0.000000
vt -0.000000 0.125960 0.000000
vt -0.010000 0.176344 0.000000
vt 0.000000 0.176344 0.000000
vt -0.010000 0.226728 0.000000
vt 0.000000 0.226728 0.000000
vt -0.010000 0.277112 0.000000
vt 0.000000 0.277112 0.000000
vt -0.010000 0.327496 0.000000
vt 0.000000 0.327496 0.000000
vt -0.010000 0.377880 0.000000
vt -0.000000 0.377880 0.000000
vt -0.010000 0.428264 0.000000
vt 0.000000 0.428264 0.000000
vt -0.010000 0.478648 0.000000
vt 0.000000 0.478648 0.000000
vt -0.010000 0.529032 0.000000
vt 0.000000 0.529032 0.000000
vt -0.010000 0.579416 0.000000
vt -0.000000 0.579416 0.000000
vt -0.010000 0.629800 0.000000
vt 0.000000 0.629800 0.000000
vt -0.010000 0.680184 0.000000
vt 0.000000 0.680184 0.000000
vt -0.010000 0.730568 0.000000
vt 0.000000 0.730568 0.000000
vt -0.010000 0.780953 0.000000
vt -0.000000 0.780953 0.000000
vt -0.010000 0.831337 0.000000
vt -0.000000 0.831337 0.000000
vt -0.010000 0.881721 0.000000
vt -0.000000 0.881721 0.000000
vt -0.010000 0.932105 0.000000
vt -0.000000 0.932105 0.000000
vt -0.010000 0.982489 0.000000
vt 0.000000 0.982489 0.000000
vt -0.010000 1.032873 0.000000
vt 0.000000 1.032873 0.000000
vt -0.010000 1.083257 0.000000
vt 0.000000 1.083257 0.000000
vt -0.010000 1.133641 0.000000
vt 0.000000 1.133641 0.000000
vt -0.010000 1.184025 0.000000
vt 0.000000 1.184025 0.000000
vt -0.010000 1.234409 0.000000
vt -0.000000 1.234409 0.000000
vt -0.422017 0.050266 0.000000
vt -0.425000 -0.000000 0.000000
vt 0.418298 -0.075178 0.000000
vt -0.422017 -0.050266 0.000000
vt -0.413110 -0.099827 0.000000
vt 0.406470 -0.124124 0.000000
vt -0.398403 -0.147986 0.000000
vt 0.388937 -0.171327 0.000000
vt -0.378104 -0.194067 0.000000
vt 0.365944 -0.216126 0.000000
vt -0.352497 -0.237425 0.000000
vt 0.337813 -0.257890 0.000000
vt -0.321942 -0.277449 0.000000
vt 0.304941 -0.296034 0.000000
vt -0.286868 -0.313579 0.000000
vt 0.267787 -0.330023 0.000000
vt -0.247766 -0.345307 0.000000
vt 0.226875 -0.359378 0.000000
vt -0.205187 -0.372187 0.000000
vt 0.182778 -0.383689 0.000000
vt -0.159727 -0.393843 0.000000
vt 0.136115 -0.402614 0.000000
vt -0.112025 -0.409970 0.000000
vt 0.087541 -0.415887 0.000000
vt -0.062750 -0.420342 0.000000
vt 0.037738 -0.423321 0.000000
vt -0.012594 -0.424813 0.000000
vt 0.424254 -0.025177 0.000000
vt 0.418298 0.075178 0.000000
vt 0.406470 0.124124 0.000000
vt 0.388937 0.171327 0.000000
vt 0.424254 0.025177 0.000000
vt 0.365944 0.216126 0.000000
vt 0.337813 0.257890 0.000000
vt 0.304941 0.296034 0.000000
vt 0.267787 0.330023 0.000000
vt 0.226875 0.359378 0.000000
vt 0.182778 0.383689 0.000000
vt 0.136115 0.402614 0.000000
vt 0.087541 0.415887 0.000000
vt 0.037738 0.423321 0.000000
vt -0.012594 0.424813 0.000000
vt -0.062750 0.420342 0.000000
vt -0.112025 0.409970 0.000000
vt -0.159727 0.393843 0.000000
vt -0.205187 0.372187 0.000000
vt -0.247766 0.345307 0.000000
vt -0.286868 0.313579 0.000000
vt -0.321942 0.277449 0.000000
vt -0.352497 0.237425 0.000000
vt -0.378104 0.194067 0.000000
vt -0.398403 0.147986 0.000000
vt -0.413110 0.099827 0.000000
vt 0.422017 -0.050266 0.000000
vt 0.425000 -0.000000 0.000000
vt -0.418298 -0.075178 0.000000
vt 0.422017 0.050266 0.000000
vt 0.413110 0.099827 0.000000
vt 0.398403 0.147986 0.000000
vt 0.378104 0.194067 0.000000
vt 0.352497 0.237425 0.000000
vt 0.321942 0.277449 0.000000
vt 0.286868 0.313579 0.000000
vt 0.247766 0.345307 0.000000
vt 0.205187 0.372187 0.000000
vt 0.159727 0.393843 0.000000
vt 0.112025 0.409970 0.000000
vt 0.062750 0.420342 0.000000
vt 0.012594 0.424813 0.000000
vt -0.037738 0.423321 0.000000
vt -0.087541 0.415887 0.000000
vt -0.136115 0.402614 0.000000
vt -0.182778 0.383689 0.000000
vt -0.226875 0.359378 0.000000
vt -0.267787 0.330023 0.000000
vt -0.304941 0.296034 0.000000
vt -0.337813 0.257890 0.000000
vt -0.365944 0.216126 0.000000
vt -0.388937 0.171327 0.000000
vt -0.406470 0.124124 0.000000
vt -0.418298 0.075178 0.000000
vt -0.424254 -0.025177 0.000000
vt -0.424254 0.025177 0.000000
vt 0.413110 -0.099827 0.000000
vt -0.406470 -0.124124 0.000000
vt 0.398403 -0.147986 0.000000
vt -0.388937 -0.171327 0.000000
vt 0.378104 -0.194067 0.000000
vt -0.365944 -0.216126 0.000000
vt 0.352497 -0.237425 0.000000
vt -0.337813 -0.257890 0.000000
vt 0.321942 -0.277449 0.000000
vt -0.304941 -0.296034 0.000000
vt 0.286868 -0.313579 0.000000
vt -0.267787 -0.330023 0.000000
vt 0.247766 -0.345307 0.000000
vt -0.226875 -0.359378 0.000000
vt 0.205187 -0.372187 0.000000
vt -0.182778 -0.383689 0.000000
vt 0.159727 -0.393843 0.000000
vt -0.136115 -0.402614 0.000000
vt 0.112025 -0.409970 0.000000
vt -0.087541 -0.415887 0.000000
vt 0.062750 -0.420342 0.000000
vt -0.037738 -0.423321 0.000000
vt 0.012594 -0.424813 0.000000
vn -0.099298 0.011827 0.000000
vn -0.099298 0.011827 0.000000
vn -0.100000 0.000000 0.000000
vn -0.100000 0.000000 0.000000
vn -0.099298 -0.011827 -0.000000
vn -0.099298 -0.011827 -0.000000
vn -0.097202 -0.023489 -0.000000
vn -0.097202 -0.023489 -0.000000
vn -0.093742 -0.034820 -0.000000
vn -0.093742 -0.034820 -0.000000
vn -0.088966 -0.045663 -0.000000
vn -0.088966 -0.045663 -0.000000
vn -0.082941 -0.055865 -0.000000
vn -0.082941 -0.055865 -0.000000
vn -0.075751 -0.065282 -0.000000
vn -0.075751 -0.065282 -0.000000
vn -0.067498 -0.073783 -0.000000
vn -0.067498 -0.073783 -0.000000
vn -0.058298 -0.081249 -0.000000
vn -0.058298 -0.081249 -0.000000
vn -0.048279 -0.087573 -0.000000
vn -0.048279 -0.087573 -0.000000
vn -0.037583 -0.092669 -0.000000
vn -0.037583 -0.092669 -0.000000
vn -0.026359 -0.096464 -0.000000
vn -0.026359 -0.096464 -0.000000
vn -0.014765 -0.098904 -0.000000
vn -0.014765 -0.098904 -0.000000
vn -0.002963 -0.099956 -0.000000
vn -0.002963 -0.099956 -0.000000
vn 0.008880 -0.099605 -0.000000
vn 0.008880 -0.099605 -0.000000
vn 0.020598 -0.097856 -0.000000
vn 0.020598 -0.097856 -0.000000
vn 0.032027 -0.094733 -0.000000
vn 0.032027 -0.094733 -0.000000
vn 0.043007 -0.090280 -0.000000
vn 0.043007 -0.090280 -0.000000
vn 0.053382 -0.084560 -0.000000
vn 0.053382 -0.084560 -0.000000
vn 0.063009 -0.077652 -0.000000
vn 0.063009 -0.077652 -0.000000
vn 0.071751 -0.069655 -0.000000
vn 0.071751 -0.069655 -0.000000
vn 0.079485 -0.060680 -0.000000
vn 0.079485 -0.060680 -0.000000
vn 0.086104 -0.050853 -0.000000
vn 0.086104 -0.050853 -0.000000
vn 0.091515 -0.040312 -0.000000
vn 0.091515 -0.040312 -0.000000
vn 0.095640 -0.029206 -0.000000
vn 0.095640 -0.029206 -0.000000
vn 0.098423 -0.017689 -0.000000
vn 0.098423 -0.017689 -0.000000
vn 0.099824 -0.005924 -0.000000
vn 0.099824 -0.005924 -0.000000
vn 0.099824 0.005924 0.000000
vn 0.099824 0.005924 0.000000
vn 0.098423 0.017689 0.000000
vn 0.098423 0.017689 0.000000
vn 0.095640 0.029206 0.000000
vn 0.095640 0.029206 0.000000
vn 0.091515 0.040312 0.000000
vn 0.091515 0.040312 0.000000
vn 0.086104 0.050853 0.000000
vn 0.086104 0.050853 0.000000
vn 0.079485 0.060680 0.000000
vn 0.079485 0.060680 0.000000
vn 0.071751 0.069655 0.000000
vn 0.071751 0.069655 0.000000
vn 0.063009 0.077652 0.000000
vn 0.063009 0.077652 0.000000
vn 0.053382 0.084560 0.000000
vn 0.053382 0.084560 0.000000
vn 0.043007 0.090280 0.000000
vn 0.043007 0.090280 0.000000
vn 0.032027 0.094733 0.000000
vn 0.032027 0.094733 0.000000
vn 0.020598 0.097856 0.000000
vn 0.020598 0.097856 0.000000
vn 0.008880 0.099605 0.000000
vn 0.008880 0.099605 0.000000
vn -0.002963 0.099956 0.000000
vn -0.002963 0.099956 0.000000
vn -0.014765 0.098904 0.000000
vn -0.014765 0.098904 0.000000
vn -0.026359 0.096464 0.000000
vn -0.026359 0.096464 0.000000
vn -0.037583 0.092669 0.000000
vn -0.037583 0.092669 0.000000
vn -0.048279 0.087573 0.000000
vn -0.048279 0.087573 0.000000
vn -0.058298 0.081249 0.000000
vn -0.058298 0.081249 0.000000
vn -0.067498 0.073783 0.000000
vn -0.067498 0.073783 0.000000
vn -0.075751 0.065282 0.000000
vn -0.075751 0.065282 0.000000
vn -0.082941 0.055865 0.000000
vn -0.082941 0.055865 0.000000
vn -0.088966 0.045663 0.000000
vn -0.088966 0.045663 0.000000
vn -0.093742 0.034820 0.000000
vn -0.093742 0.034820 0.000000
vn -0.097202 0.023489 0.000000
vn -0.097202 0.023489 0.000000
vn 0.000000 0.000000 -0.100000
vn 0.000000 0.000000 -0.100000
vn 0.000000 0.000000 -0.100000
vn 0.000000 0.000000 -0.100000
vn 0.000000 0.000000 -0.100000
vn 0.000000 0.000000 -0.100000
vn 0.000000 0.000000 -0.100000
vn 0.000000 0.000000 -0.100000
vn 0.000000 0.000000 -0.100000
vn 0.000000 0.000000 -0.100000
vn 0.000000 0.000000 -0.100000
vn 0.000000 0.000000 -0.100000
vn 0.000000 0.000000 -0.100000
vn 0.000000 0.000000 -0.100000
vn 0.000000 0.000000 -0.100000
vn 0.000000 0.000000 -0.100000
vn 0.000000 0.000000 -0.100000
vn 0.000000 0.000000 -0.100000
vn 0.000000 0.000000 -0.100000
vn 0.000000 0.000000 -0.100000
vn 0.000000 0.000000 -0.100000
vn 0.000000 0.000000 -0.100000
vn 0.000000 0.000000 -0.100000
vn 0.000000 0.000000 -0.100000
vn 0.000000 0.000000 -0.100000
vn 0.000000 0.000000 -0.100000
vn 0.000000 0.000000 -0.100000
vn 0.000000 0.000000 -0.100000
vn 0.000000 0.000000 -0.100000
vn 0.000000 0.000000 -0.100000
vn 0.000000 0.000000 -0.100000
vn 0.000000 0.000000 -0.100000
vn 0.000000 0.000000 -0.100000
vn 0.000000 0.000000 -0.100000
vn 0.000000 0.000000 -0.100000
vn 0.000000 0.000000 -0.100000
vn 0.000000 0.000000 -0.100000
vn 0.000000 0.000000 -0.100000
vn 0.000000 0.000000 -0.100000
vn 0.000000 0.000000 -0.100000
vn 0.000000 0.000000 -0.100000
vn 0.000000 0.000000 -0.100000
vn 0.000000 0.000000 -0.100000
vn 0.000000 0.000000 -0.100000
vn 0.000000 0.000000 -0.100000
vn 0.000000 0.000000 -0.100000
vn 0.000000 0.000000 -0.100000
vn 0.000000 0.000000 -0.100000
vn 0.000000 0.000000 -0.100000
vn 0.000000 0.000000 -0.100000
vn 0.000000 0.000000 -0.100000
vn 0.000000 0.000000 -0.100000
vn 0.000000 0.000000 -0.100000
vn 0.000000 -0.000000 0.100000
vn 0.000000 -0.000000 0.100000
vn 0.000000 -0.000000 0.100000
vn 0.000000 -0.000000 0.100000
vn 0.000000 -0.000000 0.100000
vn 0.000000 -0.000000 0.100000
vn 0.000000 -0.000000 0.100000
vn 0.000000 -0.000000 0.100000
vn 0.000000 -0.000000 0.100000
vn 0.000000 -0.000000 0.100000
vn 0.000000 -0.000000 0.100000
vn 0.000000 -0.000000 0.100000
vn 0.000000 -0.000000 0.100000
vn 0.000000 -0.000000 0.100000
vn 0.000000 -0.000000 0.100000
vn 0.000000 -0.000000 0.100000
vn 0.000000 -0.000000 0.100000
vn 0.000000 -0.000000 0.100000
vn 0.000000 -0.000000 0.100000
vn 0.000000 -0.000000 0.100000
vn 0.000000 -0.000000 0.100000
vn 0.000000 -0.000000 0.100000
vn 0.000000 -0.000000 0.100000
vn 0.000000 -0.000000 0.100000
vn 0.000000 -0.000000 0.100000
vn 0.000000 -0.000000 0.100000
vn 0.000000 -0.000000 0.100000
vn 0.000000 -0.000000 0.100000
vn 0.000000 -0.000000 0.100000
vn 0.000000 -0.000000 0.100000
vn 0.000000 -0.000000 0.100000
vn 0.000000 -0.000000 0.100000
vn 0.000000 -0.000000 0.100000
vn 0.000000 -0.000000 0.100000
vn 0.000000 -0.000000 0.100000
vn 0.000000 -0.000000 0.100000
vn 0.000000 -0.000000 0.100000
vn 0.000000 -0.000000 0.100000
vn 0.000000 -0.000000 0.100000
vn 0.000000 -0.000000 0.100000
vn 0.000000 -0.000000 0.100000
vn 0.000000 -0.000000 0.100000
vn 0.000000 -0.000000 0.100000
vn 0.000000 -0.000000 0.100000
vn 0.000000 -0.000000 0.100000
vn 0.000000 -0.000000 0.100000
vn 0.000000 -0.000000 0.100000
vn 0.000000 -0.000000 0.100000
vn 0.000000 -0.000000 0.100000
vn 0.000000 -0.000000 0.100000
vn 0.000000 -0.000000 0.100000
vn 0.000000 -0.000000 0.100000
vn 0.000000 -0.000000 0.100000
usemtl Steel_-_Satin
f 2/1/1 106/2/2 1/3/3
f 1/3/3 106/2/2 54/4/4
f 1/5/3 54/6/4 53/7/5
f 53/7/5 54/6/4 55/8/6
f 53/7/5 55/8/6 52/9/7
f 52/9/7 55/8/6 56/10/8
f 52/9/7 56/10/8 51/11/9
f 51/11/9 56/10/8 57/12/10
f 51/11/9 57/12/10 50/13/11
f 50/13/11 57/12/10 58/14/12
f 50/13/11 58/14/12 49/15/13
f 49/15/13 58/14/12 59/16/14
f 49/15/13 59/16/14 48/17/15
f 48/17/15 59/16/14 60/18/16
f 48/17/15 60/18/16 47/19/17
f 47/19/17 60/18/16 61/20/18
f 47/19/17 61/20/18 46/21/19
f 46/21/19 61/20/18 62/22/20
f 46/21/19 62/22/20 45/23/21
f 45/23/21 62/22/20 63/24/22
f 45/23/21 63/24/22 44/25/23
f 44/25/23 63/24/22 64/26/24
f 44/25/23 64/26/24 43/27/25
f 43/27/25 64/26/24 65/28/26
f 43/27/25 65/28/26 42/29/27
f 42/29/27 65/28/26 66/30/28
f 42/29/27 66/30/28 41/31/29
f 41/31/29 66/30/28 67/32/30
f 41/31/29 67/32/30 40/33/31
f 40/33/31 67/32/30 68/34/32
f 40/33/31 68/34/32 39/35/33
f 39/35/33 68/34/32 69/36/34
f 39/35/33 69/36/34 38/37/35
f 38/37/35 69/36/34 70/38/36
f 38/37/35 70/38/36 37/39/37
f 37/39/37 70/38/36 71/40/38
f 37/39/37 71/40/38 36/41/39
f 36/41/39 71/40/38 72/42/40
f 36/41/39 72/42/40 35/43/41
f 35/43/41 72/42/40 73/44/42
f 35/43/41 73/44/42 34/45/43
f 34/45/43 73/44/42 74/46/44
f 34/45/43 74/46/44 33/47/45
f 33/47/45 74/46/44 75/48/46
f 33/47/45 75/48/46 32/49/47
f 32/49/47 75/48/46 76/50/48
f 32/49/47 76/50/48 31/51/49
f 31/51/49 76/50/48 77/52/50
f 31/51/49 77/52/50 30/53/51
f 30/53/51 77/52/50 78/54/52
f 30/53/51 78/54/52 29/55/53
f 29/55/53 78/54/52 79/56/54
f 29/55/53 79/56/54 28/57/55
f 28/57/55 79/56/54 80/58/56
f 28/57/55 80/58/56 27/59/57
f 27/59/57 80/58/56 81/60/58
f 27/59/57 81/60/58 26/61/59
f 26/61/59 81/60/58 82/62/60
f 26/61/59 82/62/60 25/63/61
f 25/63/61 82/62/60 83/64/62
f 25/63/61 83/64/62 24/65/63
f 24/65/63 83/64/62 84/66/64
f 24/65/63 84/66/64 23/67/65
f 23/67/65 84/66/64 85/68/66
f 23/67/65 85/68/66 22/69/67
f 22/69/67 85/68/66 86/70/68
f 22/69/67 86/70/68 21/71/69
f 21/71/69 86/70/68 87/72/70
f 21/71/69 87/72/70 20/73/71
f 20/73/71 87/72/70 88/74/72
f 20/73/71 88/74/72 19/75/73
f 19/75/73 88/74/72 89/76/74
f 19/75/73 89/76/74 18/77/75
f 18/77/75 89/76/74 90/78/76
f 18/77/75 90/78/76 17/79/77
f 17/79/77 90/78/76 91/80/78
f 17/79/77 91/80/78 16/81/79
f 16/81/79 91/80/78 92/82/80
f 16/81/79 92/82/80 15/83/81
f 15/83/81 92/82/80 93/84/82
f 15/83/81 93/84/82 14/85/83
f 14/85/83 93/84/82 94/86/84
f 14/85/83 94/86/84 13/87/85
f 13/87/85 94/86/84 95/88/86
f 13/87/85 95/88/86 12/89/87
f 12/89/87 95/88/86 96/90/88
f 12/89/87 96/90/88 11/91/89
f 11/91/89 96/90/88 97/92/90
f 11/91/89 97/92/90 10/93/91
f 10/93/91 97/92/90 98/94/92
f 10/93/91 98/94/92 9/95/93
f 9/95/93 98/94/92 99/96/94
f 9/95/93 99/96/94 8/97/95
f 8/97/95 99/96/94 100/98/96
f 8/97/95 100/98/96 7/99/97
f 7/99/97 100/98/96 101/100/98
f 7/99/97 101/100/98 6/101/99
f 6/101/99 101/100/98 102/102/100
f 6/101/99 102/102/100 5/103/101
f 5/103/101 102/102/100 103/104/102
f 5/103/101 103/104/102 4/105/103
f 4/105/103 103/104/102 104/106/104
f 4/105/103 104/106/104 3/107/105
f 3/107/105 104/106/104 105/108/106
f 3/107/105 105/108/106 2/1/1
f 2/1/1 105/108/106 106/2/2
f 55/109/107 54/110/108 82/111/109
f 82/111/109 54/110/108 106/112/110
f 82/111/109 106/112/110 105/113/111
f 82/111/109 105/113/111 83/114/112
f 83/114/112 105/113/111 104/115/113
f 83/114/112 104/115/113 84/116/114
f 84/116/114 104/115/113 103/117/115
f 84/116/114 103/117/115 85/118/116
f 85/118/116 103/117/115 102/119/117
f 85/118/116 102/119/117 86/120/118
f 86/120/118 102/119/117 101/121/119
f 86/120/118 101/121/119 87/122/120
f 87/122/120 101/121/119 100/123/121
f 87/122/120 100/123/121 88/124/122
f 88/124/122 100/123/121 99/125/123
f 88/124/122 99/125/123 89/126/124
f 89/126/124 99/125/123 98/127/125
f 89/126/124 98/127/125 90/128/126
f 90/128/126 98/127/125 97/129/127
f 90/128/126 97/129/127 91/130/128
f 91/130/128 97/129/127 96/131/129
f 91/130/128 96/131/129 92/132/130
f 92/132/130 96/131/129 95/133/131
f 92/132/130 95/133/131 93/134/132
f 93/134/132 95/133/131 94/135/133
f 81/136/134 79/137/135 82/111/109
f 82/111/109 79/137/135 78/138/136
f 82/111/109 78/138/136 77/139/137
f 81/136/134 80/140/138 79/137/135
f 77/139/137 76/141/139 82/111/109
f 82/111/109 76/141/139 75/142/140
f 82/111/109 75/142/140 74/143/141
f 74/143/141 73/144/142 82/111/109
f 82/111/109 73/144/142 72/145/143
f 82/111/109 72/145/143 71/146/144
f 71/146/144 70/147/145 82/111/109
f 82/111/109 70/147/145 69/148/146
f 82/111/109 69/148/146 68/149/147
f 68/149/147 67/150/148 82/111/109
f 82/111/109 67/150/148 66/151/149
f 82/111/109 66/151/149 65/152/150
f 65/152/150 64/153/151 82/111/109
f 82/111/109 64/153/151 63/154/152
f 82/111/109 63/154/152 62/155/153
f 62/155/153 61/156/154 82/111/109
f 82/111/109 61/156/154 60/157/155
f 82/111/109 60/157/155 59/158/156
f 59/158/156 58/159/157 82/111/109
f 82/111/109 58/159/157 57/160/158
f 82/111/109 57/160/158 56/161/159
f 56/161/159 55/109/107 82/111/109
f 2/162/160 1/163/161 26/164/162
f 26/164/162 1/163/161 53/165/163
f 26/164/162 53/165/163 52/166/164
f 52/166/164 51/167/165 26/164/162
f 26/164/162 51/167/165 50/168/166
f 26/164/162 50/168/166 49/169/167
f 49/169/167 48/170/168 26/164/162
f 26/164/162 48/170/168 47/171/169
f 26/164/162 47/171/169 46/172/170
f 46/172/170 45/173/171 26/164/162
f 26/164/162 45/173/171 44/174/172
f 26/164/162 44/174/172 43/175/173
f 43/175/173 42/176/174 26/164/162
f 26/164/162 42/176/174 41/177/175
f 26/164/162 41/177/175 40/178/176
f 40/178/176 39/179/177 26/164/162
f 26/164/162 39/179/177 38/180/178
f 26/164/162 38/180/178 37/181/179
f 37/181/179 36/182/180 26/164/162
f 26/164/162 36/182/180 35/183/181
f 26/164/162 35/183/181 34/184/182
f 34/184/182 33/185/183 26/164/162
f 26/164/162 33/185/183 32/186/184
f 26/164/162 32/186/184 31/187/185
f 31/187/185 30/188/186 26/164/162
f 26/164/162 30/188/186 29/189/187
f 26/164/162 29/189/187 27/190/188
f 27/190/188 29/189/187 28/191/189
f 2/162/160 26/164/162 3/192/190
f 3/192/190 26/164/162 25/193/191
f 3/192/190 25/193/191 4/194/192
f 4/194/192 25/193/191 24/195/193
f 4/194/192 24/195/193 5/196/194
f 5/196/194 24/195/193 23/197/195
f 5/196/194 23/197/195 6/198/196
f 6/198/196 23/197/195 22/199/197
f 6/198/196 22/199/197 7/200/198
f 7/200/198 22/199/197 21/201/199
f 7/200/198 21/201/199 8/202/200
f 8/202/200 21/201/199 20/203/201
f 8/202/200 20/203/201 9/204/202
f 9/204/202 20/203/201 19/205/203
f 9/204/202 19/205/203 10/206/204
f 10/206/204 19/205/203 18/207/205
f 10/206/204 18/207/205 11/208/206
f 11/208/206 18/207/205 17/209/207
f 11/208/206 17/209/207 12/210/208
f 12/210/208 17/209/207 16/211/209
f 12/210/208 16/211/209 13/212/210
f 13/212/210 16/211/209 15/213/211
f 13/212/210 15/213/211 14/214/212
# 106 vertices
# 214 texture params
# 212 normals
# 208 facets

# 1 groups
